<svg xmlns="http://www.w3.org/2000/svg" width="132" height="39" fill="none" viewBox="0 0 132 39">
  <g clip-path="url(#a)">
    <path fill="#1C1D27" d="M62.5876 16.5445h-3.3895l-6.952 7.1464V10.5254h-3.1592v20.8215h3.1592V26.838l2.4699-2.2966 4.8268 6.8055h3.3894l-6.1482-8.5925 5.8036-6.2099Z"/>
    <path fill="#1C1D27" d="M75.4028 18.6038c-.6893-.715-1.4989-1.2772-2.4273-1.682-.9284-.4049-1.9874-.6073-3.1739-.6073s-2.2264.2024-3.1739.6073c-.9474.4048-1.7629.9655-2.442 1.682-.6805.7151-1.2026 1.5307-1.5649 2.4438-.3637.9132-.5456 1.8976-.5456 2.9535s.1819 1.9836.5456 2.8967c.3637.9146.8859 1.7287 1.5649 2.4438.6791.7165 1.4887 1.2772 2.4274 1.6821.9386.4048 2.0005.6073 3.1885.6073 1.188 0 2.2264-.2025 3.1739-.6073.9474-.4049 1.7614-.9656 2.442-1.6821.6805-.7151 1.2012-1.5307 1.5664-2.4438.3637-.9131.5456-1.8787.5456-2.8967s-.1819-2.0389-.5456-2.9535c-.3638-.9146-.8903-1.7287-1.5796-2.4438h-.0015Zm-1.7233 7.9008c-.4019.7689-.9387 1.369-1.609 1.8-.6702.4311-1.4358.6467-2.2982.6467s-1.5708-.2156-2.2396-.6467c-.6703-.431-1.2071-1.0209-1.609-1.7723-.4018-.7501-.6028-1.602-.6028-2.5589 0-.9568.201-1.7534.6028-2.502.4019-.75.9387-1.35 1.609-1.8.6702-.4501 1.427-.6758 2.2689-.6758.8419 0 1.5752.2155 2.2557.6466.6791.4311 1.2203 1.0268 1.6236 1.7855.4019.7602.6028 1.6078.6028 2.5457 0 .9379-.2009 1.7622-.6028 2.5312h-.0014Zm19.0446-7.8586c-.5837-.7252-1.2833-1.2961-2.0973-1.7097-.814-.4151-1.7292-.6219-2.7427-.6219-1.207 0-2.2557.2753-3.146.8272-.8902.552-1.6324 1.2933-2.2264 2.2253v-8.8415h-3.1592v20.8215h2.7867v-2.6811c.5353.8942 1.2687 1.6122 2.1971 2.1539.9284.5418 1.9682.8127 3.1166.8127 1.015 0 1.9536-.1937 2.8146-.5797.8624-.3859 1.6133-.932 2.2557-1.6384.6409-.7063 1.1396-1.5204 1.4931-2.4452.3534-.9233.5309-1.9122.5309-2.9666 0-1.0544-.1584-1.9821-.4737-2.8967-.3154-.9131-.7656-1.733-1.3508-2.4583l.0014-.0015Zm-1.7658 7.2396c-.2303.6-.55 1.1243-.9622 1.5743-.4121.45-.9049.8097-1.4798 1.0821-.575.2723-1.1968.4078-1.8671.4078-.4209 0-.8477-.0699-1.2789-.2112-.4312-.1413-.8478-.3423-1.2496-.6044-.4019-.2621-.7466-.568-1.034-.9146-.2875-.3466-.4796-.7354-.575-1.1665v-3.8812c.2875-.5811.6468-1.1112 1.078-1.5889s.924-.8622 1.4799-1.1534c.5559-.2913 1.1484-.4355 1.7805-.4355.88 0 1.6559.2345 2.3276.7034.6703.469 1.1924 1.0821 1.565 1.8423.374.7588.5602 1.5889.5602 2.4889 0 .6379-.1144 1.2569-.3446 1.8569Zm8.6023-15.3602h-3.1592v3.4516h3.1592v-3.4516Zm0 5.9043h-3.1592v14.9175h3.1592V16.4297Zm17.6174 12.1922c-.363.1048-.738.1573-1.12.1573-.345 0-.628-.118-.848-.3568-.22-.2374-.33-.7078-.33-1.4127V15.4011c0-1.5409-.488-2.786-1.465-3.737-.977-.951-2.461-1.4258-4.453-1.4258-1.245 0-2.309.2286-3.189.6845-.881.4558-1.551 1.1083-2.01 1.9544-.459.8461-.69 1.8685-.69 3.0656v.884h-2.011v2.3957h2.011v12.1228h3.16V19.2225h2.757v-2.3957h-2.757v-.399c.019-.6845.124-1.2932.315-1.8263.191-.5315.493-.9451.905-1.2408.412-.2942.934-.4427 1.566-.4427.728 0 1.283.1485 1.666.4427.383.2957.652.6874.804 1.1724.153.4864.23.9976.23 1.5306v12.3019c0 .9917.307 1.784.92 2.3738.613.5913 1.465.8869 2.556.8869.383 0 .781-.0437 1.193-.131.412-.0874.814-.1792 1.207-.2767.391-.0976.694-.1937.905-.2913l-.459-2.5821c-.212.0772-.499.1674-.863.2709v.0058Z"/>
    <path fill="#1C1D27" d="m128.927 16.5449-4.079 11.6596-4.597-11.6596h-3.303l6.147 14.8374c-.345.9976-.642 1.7651-.89 2.3025-.25.5359-.493.9-.732 1.0879-.239.1893-.522.2738-.848.2548-.173.019-.397.0044-.674-.0422-.279-.048-.561-.0903-.848-.1281v2.7379c.306.0757.584.1325.833.1719.248.0378.488.0466.719.0291.784.0189 1.479-.1049 2.082-.3699.603-.2665 1.11-.6248 1.523-1.0792.412-.4544.712-.9641.905-1.5321l6.836-18.27h-3.074Z"/>
    <path fill="#FF6B35" d="M31.6653 14.0131c-1.386 0-2.7192.3713-3.9306.9932-.6131-1.1025-1.4432-2.0811-2.4406-2.8632L9.78853 0l-.18626 1.47092c-.32267 2.54571-.2464 5.40017.2024 8.07696L0 3.74721l.007333 1.48257C.063067 16.2194 5.126 22.1658 9.36467 25.2183c.0396.0291.08066.0568.12173.0844-1.01933 1.4113-2.82187 4.8483-2.82187 11.5315v1.4898l1.28187-.7748c.03813-.0233 3.9233-2.3461 7.5695-2.3461 1.0413 0 2.1604.2359 3.3454.4864 3.1314.6612 6.6792 1.4097 10.3298-1.8263 2.7074-2.4001 4.7256-6.14 6.0514-9.6585 1.8568-1.3224 3.8662-2.6113 6.4387-3.6045l1.2012-.4632-.9079-.9073c-.2126-.2126-5.277-5.2166-10.3077-5.2166h-.0015Zm3.7664 2.6389c-.1276 1.5743-.6746 3.9627-1.5928 6.4939-.3432.2476-.6776.4922-1.0061.7325-2.9128 2.1336-5.456 3.9948-9.2151 4.238v-4.5176c0-3.4865 3.7899-7.9109 8.0491-7.9109 1.2628 0 2.5608.399 3.7664.9641h-.0015ZM11.1364 3.18797 24.2499 13.4582c.8448.6612 1.5429 1.4957 2.0518 2.435-1.4402 1.0617-2.6224 2.4758-3.3938 3.9846-.8302-2.1277-2.3555-3.97-4.3766-5.1671l-6.7774-4.0108c-.5486-2.40449-.7656-5.0536-.6175-7.51339v.00146ZM1.73507 6.72254 17.6689 16.1495c2.6283 1.5554 4.2622 4.4099 4.2622 7.4479v4.5132c-2.6635-.1835-7.37-1.2233-11.575-4.2511-5.35477-3.8535-8.25143-9.6149-8.62103-17.13696ZM15.5159 33.5268c-2.7735 0-5.55577 1.1228-7.13537 1.8903.23174-5.4453 1.77317-8.1759 2.51537-9.1896 3.916 2.3797 8.1092 3.3933 11.0132 3.5623-.1716 3.3744-1.43 4.1098-2.4567 4.3093-.0807-.0174-.1599-.0335-.2405-.0509-1.2188-.2578-2.4772-.5229-3.696-.5229v.0015Zm12.5517-.9131c-2.0607 1.8262-4.0407 2.1233-6.0471 1.9238.9416-1.0034 1.4682-2.5821 1.5752-4.72h.022v-.0248c3.7239-.2112 6.3756-1.8103 8.9834-3.6729-1.1822 2.4962-2.7075 4.8744-4.5335 6.4924v.0015Zm8.0535-11.0334c.4546-1.5437.7582-2.9491.9093-4.0618 1.1455.702 2.1281 1.4695 2.7984 2.0375-1.3684.6145-2.5887 1.3078-3.7077 2.0243Z"/>
    <path fill="#FF6B35" d="M30.7137 21.6538c.9988 0 1.8113-.8068 1.8113-1.7986 0-.9917-.8125-1.7986-1.8113-1.7986-.9988 0-1.8114.8069-1.8114 1.7986 0 .9918.8126 1.7986 1.8114 1.7986Z"/>
  </g>
  <defs>
    <clipPath id="a">
      <path fill="#fff" d="M0 0h132v38.3226H0z"/>
    </clipPath>
  </defs>
</svg>
